<?xml version="1.0" encoding="utf-8"?>
<!-- Generator: Adobe Illustrator 24.3.0, SVG Export Plug-In . SVG Version: 6.00 Build 0)  -->
<svg version="1.1" id="图层_1" xmlns="http://www.w3.org/2000/svg" xmlns:xlink="http://www.w3.org/1999/xlink" x="0px" y="0px"
	 viewBox="0 0 826.4 886" style="enable-background:new 0 0 826.4 886;" xml:space="preserve">
<style type="text/css">
	.st0{fill:#00F5FF;}
</style>
<circle class="st0" cx="413.2" cy="442.6" r="195.2"/>
<path class="st0" d="M673.1,492.3l53.9-51.8l-55.5-53.3c-8.4-8.1-11.7-20.2-8.4-31.4l20.8-71.8l-74.7-18.5
	c-11.3-2.8-20.2-11.7-23-23l-17.9-72.6l-73.9,21.4c-11.2,3.2-23.3,0-31.4-8.4l-51.8-53.9l-53.3,55.5c-8.1,8.4-20.2,11.7-31.4,8.4
	L254.5,172L236,246.7c-2.8,11.3-11.7,20.2-23,23l-72.6,17.9l21.4,73.9c3.2,11.2,0,23.3-8.4,31.4l-53.9,51.8l55.5,53.3
	c8.4,8.1,11.7,20.2,8.4,31.4l-20.8,71.8l74.7,18.5c11.3,2.8,20.2,11.7,23,23l17.9,72.6l73.9-21.4c11.2-3.2,23.3,0,31.4,8.4
	l51.8,53.9l53.3-55.5c8.1-8.4,20.2-11.7,31.4-8.4l71.8,20.8l18.5-74.7c2.8-11.3,11.7-20.2,23-23l72.6-17.9l-21.4-73.9
	C661.4,512.5,664.6,500.4,673.1,492.3z M304.2,631.5L304.2,631.5c-33.2-19.1-60.7-46.7-79.8-79.8l0,0
	c-19.1-33.2-29.2-70.8-29.2-109.1v0c0-38.3,10.1-75.9,29.2-109.1l0,0c19.1-33.2,46.7-60.7,79.8-79.8l0,0
	c33.2-19.1,70.8-29.2,109.1-29.2h0c38.3,0,75.9,10.1,109.1,29.2l0,0c33.2,19.1,60.7,46.7,79.8,79.8l0,0
	c19.1,33.2,29.2,70.8,29.2,109.1v0c0,38.3-10.1,75.9-29.2,109.1l0,0c-19.1,33.2-46.7,60.7-79.8,79.8l0,0
	c-33.2,19.1-70.8,29.2-109.1,29.2h0C374.9,660.7,337.3,650.7,304.2,631.5z"/>
</svg>
